<?xml version="1.0" encoding="utf-8"?>
<!-- Generator: Adobe Illustrator 18.1.1, SVG Export Plug-In . SVG Version: 6.00 Build 0)  -->
<svg version="1.1" id="Layer_1" xmlns="http://www.w3.org/2000/svg" xmlns:xlink="http://www.w3.org/1999/xlink" x="0px" y="0px"
	 viewBox="0 0 50 50" enable-background="new 0 0 50 50" xml:space="preserve">
<g>
	<g>
		<circle fill="#61AF41" cx="24.9" cy="25.6" r="23.7"/>
	</g>
	<g>
		<path fill="#FFFFFF" d="M22.5,35.6c-7.7,1.2-10-1.4-11.9-3.7c-4.6-6.1-0.3-13.2-3.9-18L22.5,35.6z"/>
		<path fill="#61AF41" d="M18.9,36.1c-5.1,0-7-2.2-8.5-4C8,28.7,8.1,25.3,8.1,21.9c0.1-2.8,0.1-5.5-1.4-7.7L6.6,14l0.2-0.2
			c0,0.1,0.1,0.1,0.1,0.2l15.8,21.7l-0.2,0C21.2,36,20,36.1,18.9,36.1z M7.8,15.8c0.7,1.9,0.6,4,0.6,6.1c-0.1,3.3-0.1,6.7,2.3,10
			c1.5,1.8,3.3,3.9,8.3,3.9c1,0,2.1-0.1,3.3-0.3L7.8,15.8z"/>
		<g>
			<path fill="#FFFFFF" d="M23.6,34.5c4-4.3,1.3-11.4-1.4-13.4c-5.4-4-11-1.4-15.7-7.3L23.6,34.5z"/>
			<path fill="#61AF41" d="M23.5,34.7L6.6,14.2c-0.1-0.1-0.2-0.2-0.3-0.3l0.2-0.2L6.8,14c2.5,3,5.3,3.6,8.3,4.2
				c2.3,0.5,4.7,1,7.1,2.7c1.5,1.1,3.1,3.8,3.4,7c0.2,1.8,0,4.4-2,6.6L23.5,34.7z M8.5,16l15.1,18.3c1.8-2,2-4.5,1.8-6.2
				c-0.3-3.1-1.9-5.8-3.3-6.8c-2.3-1.7-4.7-2.2-7-2.7C12.8,18,10.5,17.5,8.5,16z"/>
		</g>
	</g>
	<g>
		<g>
			<path fill="#FFFFFF" d="M28.9,26.5c-3.9-4.5-3.1-7-2.5-9.2c2.1-5.5,8.4-5.5,10.1-9.8L28.9,26.5z"/>
			<path fill="#61AF41" d="M28.9,26.8l-0.2-0.2c-4-4.6-3.1-7.2-2.5-9.3c1.1-2.9,3.4-4.3,5.6-5.6c1.9-1.1,3.6-2.2,4.4-4l0.1-0.1
				l0.3,0.1c0,0,0,0.1-0.1,0.1L28.9,26.8z M35.7,9.2c-0.9,1.1-2.2,1.9-3.6,2.7c-2.2,1.3-4.4,2.6-5.5,5.5c-0.6,2-1.4,4.5,2.3,8.8
				L35.7,9.2z"/>
		</g>
		<g>
			<path fill="#FFFFFF" d="M30.2,26.8c4.4,0.8,7.9-3.8,8.1-6.3c0.4-5.1-3.5-7.7-1.6-13.1L30.2,26.8z"/>
			<path fill="#61AF41" d="M31.2,27.1L31.2,27.1c-0.4,0-0.7,0-1.1-0.1l-0.2,0l6.5-19.2c0-0.1,0.1-0.2,0.1-0.3l0.3,0.1l-0.1,0.3
				c-0.9,2.8-0.2,4.9,0.6,7c0.6,1.7,1.3,3.5,1.1,5.7C38.3,22.8,35.3,27.1,31.2,27.1z M30.4,26.7c0.3,0,0.6,0.1,0.9,0.1
				c3.8,0,6.8-4.1,6.9-6.3c0.2-2.2-0.5-3.9-1.1-5.6c-0.6-1.6-1.1-3.2-1-5.1L30.4,26.7z"/>
		</g>
	</g>
	<g>
		<g>
			<path fill="#FFFFFF" d="M27.1,34.1c2.2-4.1,4.2-4.3,6-4.5c4.6,0,6.5,4.6,10.1,4.5L27.1,34.1z"/>
		</g>
		<g>
			<path fill="#FFFFFF" d="M27.1,35.4c0.7,3.4,5.2,4.6,7.1,4c3.8-1.3,4.5-4.9,9-5.2L27.1,35.4z"/>
			<path fill="#61AF41" d="M33,39.7L33,39.7c-2.1,0-5.4-1.3-6-4.3l0-0.2l16-1.2c0.1,0,0.2,0,0.3,0l0,0.3l-0.3,0
				c-2.3,0.2-3.6,1.4-4.9,2.6c-1.1,1-2.1,2-3.8,2.5C33.9,39.7,33.5,39.7,33,39.7z M27.3,35.6c0.7,2.6,3.7,3.8,5.7,3.8l0,0
				c0.4,0,0.8-0.1,1.1-0.2c1.6-0.5,2.7-1.5,3.7-2.5c0.9-0.8,1.8-1.7,3.2-2.2L27.3,35.6z"/>
		</g>
	</g>
</g>
</svg>
