<?xml version="1.0" encoding="utf-8"?>
<!-- Generator: Adobe Illustrator 18.1.1, SVG Export Plug-In . SVG Version: 6.00 Build 0)  -->
<svg version="1.1" id="Layer_1" xmlns="http://www.w3.org/2000/svg" xmlns:xlink="http://www.w3.org/1999/xlink" x="0px" y="0px"
	 viewBox="0 0 50 50" enable-background="new 0 0 50 50" xml:space="preserve">
<g>
	<g>
		<path fill="#3C3C49" d="M49.4,25.2c0,13.3-10.8,24-24,24c-13.3,0-24-10.8-24-24c0-13.3,10.8-24,24-24
			C38.7,1.2,49.4,11.9,49.4,25.2z"/>
	</g>
	<g>
		<g>
			<circle fill="#FFFFFF" cx="17.7" cy="37.8" r="2.2"/>
			<path fill="#FFFFFF" d="M17.7,40.4c-1.4,0-2.6-1.2-2.6-2.6c0-1.4,1.2-2.6,2.6-2.6s2.6,1.2,2.6,2.6C20.3,39.2,19.1,40.4,17.7,40.4
				z M17.7,36c-1,0-1.8,0.8-1.8,1.8c0,1,0.8,1.8,1.8,1.8c1,0,1.8-0.8,1.8-1.8C19.4,36.8,18.6,36,17.7,36z"/>
		</g>
		<g>
			<circle fill="#FFFFFF" cx="32.3" cy="37.8" r="2.2"/>
			<path fill="#FFFFFF" d="M32.3,40.4c-1.4,0-2.6-1.2-2.6-2.6c0-1.4,1.2-2.6,2.6-2.6c1.4,0,2.6,1.2,2.6,2.6
				C34.9,39.2,33.7,40.4,32.3,40.4z M32.3,36c-1,0-1.8,0.8-1.8,1.8c0,1,0.8,1.8,1.8,1.8c1,0,1.8-0.8,1.8-1.8
				C34.1,36.8,33.3,36,32.3,36z"/>
		</g>
		<g>
			<g>
				<polygon fill="#FFFFFF" points="19.6,19.7 23.5,17 27.4,19.7 27.4,25 23.5,27.6 19.6,25 				"/>
				<path fill="#FFFFFF" d="M23.5,27.7L23.5,27.7l-4-2.7v-5.4l0,0l3.9-2.7l0,0l3.9,2.7V25l0,0L23.5,27.7z M19.6,25l3.9,2.6l3.9-2.6
					v-5.3L23.5,17l-3.9,2.6V25z"/>
			</g>
		</g>
		<g>
			<g>
				<polygon fill="#FFFFFF" points="12.7,17.5 17.6,14.2 22.6,17.5 22.6,24.2 17.6,27.6 12.7,24.2 				"/>
				<path fill="#FFFFFF" d="M17.6,27.6L17.6,27.6l-5-3.4v-6.7l0,0l5-3.4l0,0l5,3.4v6.7l0,0L17.6,27.6z M12.7,24.2l4.9,3.3l4.9-3.3
					v-6.7l-4.9-3.3l-4.9,3.3V24.2z"/>
			</g>
		</g>
		<g>
			<g>
				<polygon fill="#FFFFFF" points="25.2,20.8 28.2,18.7 31.2,20.8 31.2,24.8 28.2,26.9 25.2,24.8 				"/>
				<path fill="#FFFFFF" d="M28.2,26.9L28.2,26.9l-3-2.1v-4.1l0,0l3-2l0,0l3,2v4.1l0,0L28.2,26.9z M25.2,24.8l3,2l3-2v-4l-3-2l-3,2
					V24.8z"/>
			</g>
		</g>
		<g>
			<g>
				<polygon fill="#FFFFFF" points="25.9,17.9 29.9,15.3 33.8,17.9 33.8,23.3 29.9,25.9 25.9,23.3 				"/>
				<path fill="#FFFFFF" d="M29.9,26L29.9,26l-4-2.7v-5.4l0,0l3.9-2.7l0,0l3.9,2.7v5.4l0,0L29.9,26z M26,23.3l3.9,2.6l3.9-2.6V18
					l-3.9-2.6L26,18V23.3z"/>
			</g>
		</g>
		<g>
			<g>
				<polygon fill="#FFFFFF" points="18.3,15.6 23.3,12.3 28.2,15.6 28.2,22.3 23.3,25.7 18.3,22.3 				"/>
				<path fill="#FFFFFF" d="M23.3,25.7L23.3,25.7l-5-3.4v-6.7l0,0l5-3.4l0,0l5,3.4v6.7l0,0L23.3,25.7z M18.4,22.3l4.9,3.3l4.9-3.3
					v-6.7l-4.9-3.3l-4.9,3.3V22.3z"/>
			</g>
		</g>
		<g>
			<g>
				<polygon fill="#FFFFFF" points="32.3,19.5 35.3,17.5 38.3,19.5 38.3,23.6 35.3,25.6 32.3,23.6 				"/>
				<path fill="#FFFFFF" d="M35.3,25.7L35.3,25.7l-3-2.1v-4.1l0,0l3-2l0,0l3,2v4.1l0,0L35.3,25.7z M32.3,23.6l3,2l3-2v-4l-3-2l-3,2
					V23.6z"/>
			</g>
		</g>
		<g>
			<g>
				<polygon fill="#FFFFFF" points="15.3,34.2 10.4,23.1 40.4,23.1 35.1,34.2 				"/>
				<path fill="#3C3C49" d="M35.6,35H14.7L9.1,22.3h32.7L35.6,35z M15.8,33.3h18.8l4.5-9.4H11.6L15.8,33.3z"/>
			</g>
		</g>
	</g>
</g>
</svg>
