<?xml version="1.0" encoding="utf-8"?>
<!-- Generator: Adobe Illustrator 18.1.1, SVG Export Plug-In . SVG Version: 6.00 Build 0)  -->
<svg version="1.1" id="Layer_1" xmlns="http://www.w3.org/2000/svg" xmlns:xlink="http://www.w3.org/1999/xlink" x="0px" y="0px"
	 viewBox="0 0 50 50" enable-background="new 0 0 50 50" xml:space="preserve">
<g>
	<g>
		<g>
			<g>
				<circle fill="#AF9D33" cx="25.1" cy="24.5" r="20.9"/>
			</g>
		</g>
		<g>
			<path fill="#AF9D33" d="M25.1,48.6c-13.3,0-24.1-10.8-24.1-24.1c0-13.3,10.8-24.1,24.1-24.1c13.3,0,24.1,10.8,24.1,24.1
				C49.2,37.8,38.4,48.6,25.1,48.6z M25.1,2C12.7,2,2.6,12.1,2.6,24.5C2.6,36.9,12.7,47,25.1,47s22.5-10.1,22.5-22.5
				C47.6,12.1,37.5,2,25.1,2z"/>
		</g>
	</g>
	<g>
		<g>
			<path fill="#FFFFFF" d="M25.2,10C25.1,10,25.1,10,25.2,10C25.1,10,25.1,10,25.2,10c-4.3,0-7.7,3.4-7.7,7.6c0,2.5,1.5,4.1,2.4,7.1
				c0.9,2.9,0.6,2.8,1,4.4c0.4,1.6,0.4,2.9,2,3.9h2.3l0,0h2.4c1.6-1,1.5-2.3,1.9-3.9c0.4-1.6,0.2-1,1-4c0.9-2.9,2.4-4.8,2.4-7.3
				C32.8,13.7,29.4,10,25.2,10z"/>
		</g>
		<g>
			<defs>
				<path id="SVGID_1_" d="M28.3,34.5c0,2.1-1.3,3.8-3,3.8c-1.7,0-3.1-1.7-3.1-3.8c0-2.1,1.4-3.8,3.1-3.8
					C27,30.7,28.3,32.4,28.3,34.5z"/>
			</defs>
			<clipPath id="SVGID_2_">
				<use xlink:href="#SVGID_1_"  overflow="visible"/>
			</clipPath>
			<rect x="22" y="34" clip-path="url(#SVGID_2_)" fill="#FFFFFF" width="6" height="1"/>
			<rect x="22" y="36" clip-path="url(#SVGID_2_)" fill="#FFFFFF" width="6" height="1"/>
			<rect x="22" y="37" clip-path="url(#SVGID_2_)" fill="#FFFFFF" width="6" height="2"/>
		</g>
	</g>
	<path fill="#AF9D33" d="M29,22.4c-2.4-2.2-4-1.1-5.2-0.3c-0.9,0.6-1.3,0.8-1.9,0.3c0,0-0.6-0.2-0.8,0.3c-0.1,0.2,0,0.5,0.1,0.6
		c0,0,0.1,0.1,0.2,0.1c0.4,0.3,0.8,0.4,1.2,0.4c0.7,0,1.4-0.4,1.9-0.8c1-0.7,1.8-1.2,3.3-0.1c0.2,0.2,0.4,0.4,0.7,0.3
		c0.4,0,0.6-0.3,0.6-0.7C29.2,22.5,29,22.4,29,22.4z"/>
</g>
</svg>
