<?xml version="1.0" encoding="utf-8"?>
<!-- Generator: Adobe Illustrator 18.1.1, SVG Export Plug-In . SVG Version: 6.00 Build 0)  -->
<svg version="1.1" id="Layer_1" xmlns="http://www.w3.org/2000/svg" xmlns:xlink="http://www.w3.org/1999/xlink" x="0px" y="0px"
	 viewBox="0 0 50 50" enable-background="new 0 0 50 50" xml:space="preserve">
<g>
	<g>
		<path fill="#FF7400" d="M50.2,24.9c0,13.8-11.2,24.9-24.9,24.9c-13.8,0-24.9-11.2-24.9-24.9C0.3,11.2,11.5,0,25.3,0
			C39.1,0,50.2,11.2,50.2,24.9z"/>
	</g>
	<g>
		<g>
			<g>
				<path fill="#FFFFFF" d="M24.1,8.7c-2,12.3-3.9,15.4-5.2,19c0.6-6.4-1.7-9.9-1.7-10.3c-0.6,6.4-3,8-3,13
					c0,5.9,6.3,11.4,10.3,11.5c7.2,0.2,11.9-5.3,11.9-11.6c0-4.1-2.5-12.7-5.9-16.8c0.5,5.1-0.3,8.6-1.5,10.3
					C29.4,18.9,26.6,11.5,24.1,8.7z"/>
			</g>
		</g>
		<g>
			<g>
				<path fill="#FF7400" d="M24.5,33.1c-0.1-0.7-1.1-1.8-1.1-1.9c-0.4,0.9-1.9,3.5-1.8,5.3c0,2.1,1.8,3.8,3.3,3.8
					c2.4,0,3.9-2.8,3.9-4.8c0-1.4-1.6-4.3-3-6.3C25.8,29.5,25.4,32.2,24.5,33.1z"/>
			</g>
		</g>
	</g>
</g>
</svg>
