<?xml version="1.0" encoding="utf-8"?>
<!-- Generator: Adobe Illustrator 18.1.1, SVG Export Plug-In . SVG Version: 6.00 Build 0)  -->
<svg version="1.1" id="Layer_1" xmlns="http://www.w3.org/2000/svg" xmlns:xlink="http://www.w3.org/1999/xlink" x="0px" y="0px"
	 viewBox="0 0 50 50" enable-background="new 0 0 50 50" xml:space="preserve">
<g>
	<g>
		<g>
			<g>
				<g>
					<circle fill="#FF0000" cx="25" cy="25.1" r="24.3"/>
				</g>
			</g>
		</g>
		<g>
			<g>
				<path fill="#FFFFFF" d="M27,28.9v-21C27,6.3,26.5,4,24.9,4h-0.7C22.7,4,21,6.3,21,7.9V14h1v1h-1v2h1v2h-1v1h1v2h-1v2h1v1h-1v3.8
					c-2,1.1-3.6,3.4-3.6,6.1c0,3.8,3.2,6.8,6.9,6.8c3.8,0,6.5-3.1,6.5-6.8C30.9,32.3,29,30.1,27,28.9z M24.5,39.1
					c-2.1,0-4.2-1.7-4.2-3.9c0-1.9,0.7-3.4,2.7-3.8V7.6C23,7.2,24.1,6,24.5,6h0C24.9,6,25,7.2,25,7.6v23.9c2,0.3,3.3,1.9,3.3,3.8
					C28.3,37.4,26.7,39.1,24.5,39.1z"/>
			</g>
		</g>
	</g>
</g>
</svg>
