<?xml version="1.0" encoding="utf-8"?>
<!-- Generator: Adobe Illustrator 18.1.1, SVG Export Plug-In . SVG Version: 6.00 Build 0)  -->
<svg version="1.1" id="Layer_1" xmlns="http://www.w3.org/2000/svg" xmlns:xlink="http://www.w3.org/1999/xlink" x="0px" y="0px"
	 viewBox="0 0 50 50" enable-background="new 0 0 50 50" xml:space="preserve">
<g>
	<g>
		<path fill="#4994D0" d="M48.8,24.7c0,13.2-10.7,24-24,24c-13.2,0-24-10.7-24-24c0-13.2,10.7-24,24-24
			C38.1,0.8,48.8,11.5,48.8,24.7z"/>
	</g>
	<g>
		<g>
			<g>
				<path fill="#FFFFFF" d="M33.4,27.6c-1.4,0-2.8-0.4-4.3-2.3c-1.3,1.8-2.9,2.3-4.3,2.3c-1.4,0-3-0.4-4.3-2.3
					c-1.5,1.7-2.7,2.3-4.2,2.3c-2.2,0-4.1-1.2-4.1-1.2v-3.3c0,0,2.5,1.1,4.1,1.1c2.3,0,4.2-2.3,4.2-2.3s1.4,2.3,4.3,2.3
					c2.9,0,4.3-2.3,4.3-2.3s1,2.3,4.3,2.3c2.1,0,4.1-1.1,4.1-1.1v3.3C37.6,26.4,35.8,27.6,33.4,27.6z"/>
				<path fill="#FFFFFF" d="M33.4,28c-1.2,0-2.7-0.3-4.3-2c-1.1,1.3-2.6,2-4.3,2c-1.8,0-3.2-0.7-4.3-2c-1.3,1.4-2.6,2-4.2,2
					c-2.2,0-4.3-1.2-4.3-1.2l-0.2-0.1v-4.1l0.6,0.3c0,0,2.4,1.1,4,1.1c2.1,0,3.9-2.1,3.9-2.2l0.4-0.4l0.3,0.5
					c0.1,0.1,1.3,2.1,3.9,2.1c2.7,0,4-2.1,4-2.1l0.4-0.6l0.3,0.7c0,0.1,1,2.1,4,2.1c2,0,3.9-1.1,3.9-1.1l0.6-0.3l0,4.2l-0.2,0.1
					C37.7,26.8,35.9,28,33.4,28z M29.1,24.7l0.3,0.4c1.5,1.9,2.8,2.1,4,2.1c1.8,0,3.3-0.7,3.7-1v-2.5c-0.8,0.4-2.2,0.9-3.7,0.9
					c-2.5,0-3.8-1.2-4.4-2c-0.6,0.7-2,2-4.3,2c-2.3,0-3.7-1.4-4.3-2.1c-0.7,0.7-2.3,2.1-4.2,2.1c-1.3,0-2.9-0.6-3.7-0.9v2.5
					c0.5,0.3,2.1,1,3.7,1c1.5,0,2.6-0.6,3.9-2.1l0.3-0.4l0.3,0.4c1.3,1.9,2.9,2.1,4,2.1c1.7,0,3-0.7,4-2.1L29.1,24.7z"/>
			</g>
		</g>
		<g>
			<g>
				<path fill="#FFFFFF" d="M33.4,19.4c-1.4,0-2.8-0.4-4.3-2.3c-1.3,1.8-2.9,2.3-4.3,2.3c-1.4,0-3-0.4-4.3-2.3
					c-1.5,1.7-2.7,2.3-4.2,2.3c-2.2,0-4.1-1.2-4.1-1.2v-3.3c0,0,2.5,1.1,4.1,1.1c2.3,0,4.2-2.3,4.2-2.3s1.4,2.3,4.3,2.3
					c2.9,0,4.3-2.3,4.3-2.3s1,2.3,4.3,2.3c2.1,0,4.1-1.1,4.1-1.1v3.3C37.6,18.3,35.8,19.4,33.4,19.4z"/>
				<path fill="#FFFFFF" d="M33.4,19.8c-1.2,0-2.7-0.3-4.3-2c-1.1,1.3-2.6,2-4.3,2c-1.8,0-3.2-0.7-4.3-2c-1.3,1.4-2.6,2-4.2,2
					c-2.2,0-4.3-1.2-4.3-1.2l-0.2-0.1v-4.1l0.6,0.3c0,0,2.4,1.1,4,1.1c2.1,0,3.9-2.1,3.9-2.2l0.4-0.4l0.3,0.5
					c0.1,0.1,1.3,2.1,3.9,2.1c2.7,0,4-2.1,4-2.1l0.4-0.6l0.3,0.7c0,0.1,1,2.1,4,2.1c2,0,3.9-1.1,3.9-1.1l0.6-0.3v4.2l-0.2,0.1
					C37.7,18.6,35.9,19.8,33.4,19.8z M29.1,16.5l0.3,0.4c1.5,1.9,2.8,2.1,4,2.1c1.8,0,3.3-0.7,3.7-1v-2.5c-0.8,0.4-2.2,0.9-3.7,0.9
					c-2.5,0-3.8-1.2-4.4-2c-0.6,0.7-2,2-4.3,2c-2.3,0-3.7-1.4-4.3-2.1c-0.7,0.7-2.3,2.1-4.2,2.1c-1.3,0-2.9-0.6-3.7-0.9V18
					c0.5,0.3,2.1,1,3.7,1c1.5,0,2.6-0.6,3.9-2.1l0.3-0.4l0.3,0.4c1.3,1.9,2.9,2.1,4,2.1c1.7,0,3-0.7,4-2.1L29.1,16.5z"/>
			</g>
		</g>
		<g>
			<g>
				<path fill="#FFFFFF" d="M33.4,35.7c-1.4,0-2.8-0.4-4.4-2.3c-1.3,1.8-2.9,2.3-4.3,2.3c-1.4,0-3-0.4-4.3-2.3
					c-1.5,1.7-2.7,2.3-4.2,2.3c-2.2,0-4.1-1.2-4.1-1.2v-3.3c0,0,2.5,1.1,4.1,1.1c2.3,0,4.2-2.3,4.2-2.3s1.4,2.3,4.3,2.3
					c2.9,0,4.3-2.3,4.3-2.3s1,2.3,4.4,2.3c2.1,0,4.1-1.1,4.1-1.1v3.3C37.6,34.5,35.8,35.7,33.4,35.7z"/>
				<path fill="#FFFFFF" d="M33.4,36.1c-1.2,0-2.7-0.3-4.3-2c-1.1,1.3-2.6,2-4.3,2c-1.8,0-3.2-0.7-4.3-2c-1.4,1.4-2.6,2-4.2,2
					c-2.2,0-4.2-1.2-4.3-1.2l-0.2-0.1v-4.1l0.6,0.3c0,0,2.4,1.1,4,1.1c2.1,0,3.9-2.1,3.9-2.2l0.4-0.4l0.3,0.5
					c0.1,0.1,1.3,2.1,3.9,2.1c2.7,0,4-2.1,4-2.1l0.4-0.6l0.3,0.7c0,0.1,1,2.1,4,2.1c2,0,3.9-1.1,3.9-1.1l0.6-0.3l0,4.2l-0.2,0.1
					C37.7,34.9,35.9,36.1,33.4,36.1z M29,32.8l0.3,0.4c1.5,1.9,2.8,2.1,4,2.1c1.8,0,3.3-0.7,3.7-1v-2.5c-0.8,0.4-2.2,0.9-3.7,0.9
					c-2.5,0-3.8-1.2-4.4-2c-0.6,0.7-2,2-4.3,2c-2.3,0-3.7-1.4-4.3-2.1c-0.7,0.7-2.3,2.1-4.2,2.1c-1.3,0-2.9-0.6-3.7-0.9v2.5
					c0.5,0.3,2.1,1,3.7,1c1.5,0,2.6-0.6,3.9-2.1l0.3-0.4l0.3,0.4c1.3,1.9,2.9,2.1,4,2.1c1.7,0,3-0.7,4-2.1L29,32.8z"/>
			</g>
		</g>
	</g>
</g>
</svg>
