<?xml version="1.0" encoding="utf-8"?>
<!-- Generator: Adobe Illustrator 18.1.1, SVG Export Plug-In . SVG Version: 6.00 Build 0)  -->
<svg version="1.1" id="Layer_1" xmlns="http://www.w3.org/2000/svg" xmlns:xlink="http://www.w3.org/1999/xlink" x="0px" y="0px"
	 viewBox="0 0 50 50" enable-background="new 0 0 50 50" xml:space="preserve">
<g>
	<g>
		<circle fill="#7309AA" cx="25.3" cy="25" r="23.9"/>
	</g>
	<g>
		<g>
			<g>
				<g>
					<path fill="#FFFFFF" d="M25.5,29.2c-0.8,0-1.6-0.2-2.2-0.7L17,39.5c5.2,3,11.2,3,16.4,0l-6.2-10.7
						C26.7,29.1,26.1,29.2,25.5,29.2z"/>
				</g>
			</g>
			<g>
				<g>
					<path fill="#FFFFFF" d="M29.6,25.1c0,0.1,0,0.1,0,0.2h11.9c0-6-3-11.2-8.2-14.2l-6,10.3C28.7,22.2,29.6,23.5,29.6,25.1z"/>
				</g>
			</g>
			<g>
				<g>
					<path fill="#FFFFFF" d="M21.4,25.1c0-1.4,0.7-2.6,1.7-3.3L17,11.2c-5.2,3-8.2,8.2-8.2,14.2h12.6C21.4,25.3,21.4,25.2,21.4,25.1
						z"/>
				</g>
			</g>
			<g>
				<g>
					<path fill="#FFFFFF" d="M27.3,21.2c-0.6-0.3-1.3-0.5-2-0.5c-1.1,0-2,0.4-2.8,1c-1,0.8-1.7,2.1-1.7,3.5c0,0.1,0,0.2,0,0.3
						c0.1,1.4,0.9,2.6,2,3.4c0.7,0.5,1.6,0.8,2.5,0.8c0.6,0,1.1-0.1,1.7-0.3c1.5-0.6,2.7-2.1,2.8-3.8c0-0.1,0-0.2,0-0.3
						C29.8,23.4,28.7,21.9,27.3,21.2z"/>
					<path fill="#7309AA" d="M25.3,31.1c-1.2,0-2.3-0.3-3.3-1c-1.5-1-2.4-2.6-2.6-4.5l0-0.1c0-0.1,0-0.2,0-0.4
						c0-1.8,0.8-3.5,2.3-4.6c1.8-1.4,4.2-1.7,6.2-0.6c2,1,3.3,3,3.3,5.3c0,0.2,0,0.3,0,0.4l0,0c0,0,0,0,0,0l0,0
						c-0.2,2.3-1.6,4.2-3.7,5C26.8,30.9,26,31.1,25.3,31.1z M22.2,25.4c0.1,0.9,0.6,1.8,1.3,2.3c0.8,0.5,1.9,0.7,2.8,0.3
						c1.1-0.4,1.8-1.4,1.9-2.6c0-0.1,0-0.2,0-0.3c0-1.1-0.7-2.2-1.7-2.7c-0.5-0.2-0.9-0.3-1.3-0.3c-0.8,0-1.5,0.4-1.9,0.7
						c-0.7,0.6-1.2,1.5-1.2,2.4l0,0C22.2,25.2,22.2,25.3,22.2,25.4z"/>
				</g>
			</g>
		</g>
	</g>
</g>
</svg>
