<?xml version="1.0" encoding="utf-8"?>
<!-- Generator: Adobe Illustrator 18.1.1, SVG Export Plug-In . SVG Version: 6.00 Build 0)  -->
<svg version="1.1" id="Layer_1" xmlns="http://www.w3.org/2000/svg" xmlns:xlink="http://www.w3.org/1999/xlink" x="0px" y="0px"
	 viewBox="0 0 50 50" enable-background="new 0 0 50 50" xml:space="preserve">
<g>
	<g>
		<g>
			<path fill="#24479D" d="M49.4,24.9c0,13.5-10.9,24.4-24.4,24.4c-13.5,0-24.4-10.9-24.4-24.4C0.5,11.4,11.5,0.5,25,0.5
				C38.5,0.5,49.4,11.4,49.4,24.9z"/>
		</g>
	</g>
	<g>
		<g>
			<path fill="#FFFFFF" d="M24.6,26.2c5.2,0,9.4-1.9,9.4-4.2v-4.7c-1,1.7-5.2,2.9-9.5,2.9c-4.2,0-8.5-1.1-9.5-2.8v4.7
				C15,24,19.3,26.2,24.6,26.2z"/>
		</g>
		<g>
			<path fill="#FFFFFF" d="M34.4,32.2c-0.7,0.5-1.4,1-2.3,1.4c-2,0.9-4.6,1.3-7.6,1.3c-2.9,0-5.5-0.5-7.5-1.3
				c-0.9-0.4-1.6-0.8-2.2-1.3c0,0,0,4.3,0,4.3c0,2.7,4.4,4.8,9.8,4.8c5.4,0,9.8-2.1,9.8-4.8C34.4,36.6,34.4,32.2,34.4,32.2z"/>
		</g>
		<g>
			<path fill="#FFFFFF" d="M24.5,27.4c-4.3,0-8.5-1.1-9.5-2.8v5.6c0,1.1,1.9,2,3.9,2.6c1.6,0.5,3.7,0.8,5.8,0.8c2.2,0,4-0.3,5.6-0.9
				c2.1-0.7,3.6-1.8,3.6-3v-5.2C33,26.3,28.7,27.4,24.5,27.4z"/>
		</g>
		<g>
			<path fill="#FFFFFF" d="M34.4,14.6c-0.3-2.2-4.6-4-9.6-4c-5,0-9.3,1.8-9.6,4c0,0.1,0,0.1,0,0.2c0,2.3,4.4,4.2,9.6,4.2
				c5.2,0,9.6-1.9,9.6-4.2C34.4,14.7,34.4,14.7,34.4,14.6z M30.4,16.2c-1.2,0-2.5-0.4-2.5-1.2c0-0.1,0-0.3,0.1-0.4
				c0.3-0.6,1.4-0.8,2.4-0.8c1,0,2.1,0.3,2.4,0.8c0.1,0.1,0.1,0.2,0.1,0.4C32.9,15.8,31.6,16.2,30.4,16.2z"/>
		</g>
		<g>
			<path fill="#24479D" d="M33,15c0,0.8-1.2,1.4-2.7,1.4c-1.5,0-2.7-0.6-2.7-1.4c0-0.8,1.2-1.4,2.7-1.4C31.8,13.6,33,14.2,33,15z"/>
		</g>
	</g>
</g>
</svg>
