<?xml version="1.0" encoding="utf-8"?>
<!-- Generator: Adobe Illustrator 18.1.1, SVG Export Plug-In . SVG Version: 6.00 Build 0)  -->
<svg version="1.1" id="Layer_1" xmlns="http://www.w3.org/2000/svg" xmlns:xlink="http://www.w3.org/1999/xlink" x="0px" y="0px"
	 viewBox="0 0 50 50" enable-background="new 0 0 50 50" xml:space="preserve">
<g>
	<g>
		<g>
			<circle fill="#EFC206" cx="25" cy="25.2" r="23.9"/>
		</g>
	</g>
	<g>
		<path fill="#FFFFFF" d="M25.4,17.6c-4.4,0-8,3.6-8,8c0,4.4,3.6,8,8,8c4.4,0,8-3.6,8-8C33.4,21.1,29.8,17.6,25.4,17.6z M25.4,30.9
			c-3,0-5.4-2.4-5.4-5.4c0-3,2.4-5.4,5.4-5.4c3,0,5.4,2.4,5.4,5.4C30.8,28.5,28.4,30.9,25.4,30.9z"/>
		<g>
			<path fill="#FFFFFF" d="M12.6,27.3c1.2-0.2,2.5-1.1,2.6-1.3l0.5-0.5L14,23.7l-0.6,0.6l0,0.1c-0.2,0.2-0.6,0.6-1,0.6
				c-0.1,0-0.3-0.2-0.4-0.3c-0.1-0.1-0.2-0.2-0.4-0.3l-0.4-0.4l0,0c-0.6-0.4-1.3-0.9-2.3-0.9c-1.7,0-2.9,1.2-2.9,1.2L5.4,25l1.9,1.6
				L7.8,26c0.2-0.2,0.6-0.6,1-0.6c0.1,0,0.6,0.3,1,0.7l0.1,0.1l0,0c0.2,0.2,1.4,1.1,2.4,1.1C12.4,27.3,12.5,27.3,12.6,27.3z"/>
			<path fill="#FFFFFF" d="M17.3,16c-0.3,0-0.9,0.1-1.1-0.2c-0.1-0.1-0.2-0.4-0.2-0.7c0-0.1-0.1-0.2-0.1-0.4c0-0.1,0-0.2-0.1-0.3
				l0,0c-0.1-0.7-0.3-1.5-1-2.2c-1.2-1.1-2.9-1.1-3-1.1l-0.8,0l0.1,2.5l0.8,0c0.2,0,0.8,0,1.1,0.3c0.1,0.1,0.3,0.6,0.3,1.1l0,0
				l0,0.1c0,0.1,0.2,1.9,1.2,2.6c0.9,0.7,2.6,0.9,2.8,0.9l0.7,0l0.1-2.7L17.3,16L17.3,16z"/>
			<path fill="#FFFFFF" d="M15.8,32.7l0,0.8c0,0.2-0.1,0.8-0.4,1.1c-0.1,0.1-0.5,0.2-0.9,0.2c-0.1,0-0.1,0-0.2,0c0,0-0.1,0-0.1,0
				l-0.2,0l0,0.1c-0.9,0-2,0.2-2.6,0.8c-0.8,0.9-1.2,2.4-1.2,2.6l0,0.7l2.5,0.3l0.1-0.8l0-0.1c0-0.3,0.1-0.8,0.4-1.1
				c0.2-0.1,0.5-0.2,1.1-0.2l0.2,0c0.7-0.1,1.6-0.2,2.4-0.8c1.1-0.9,1.4-2.4,1.4-2.8l0-0.8l-1.7,0L15.8,32.7z"/>
			<path fill="#FFFFFF" d="M38.6,36.6c-0.1-0.1-0.2-0.4-0.2-0.6c0-0.2-0.1-0.4-0.2-0.6c0-0.1-0.1-0.3-0.1-0.4c-0.2-0.7-0.4-1.5-1-2
				l0,0c-1.2-1-2.8-0.8-3.1-0.7l-0.8,0.1l0.3,2.5l0.8-0.1c0.2,0,0.8,0,1.1,0.3c0.1,0.1,0.3,0.6,0.4,1.1l0,0l0,0.1
				c0,0.1,0.4,1.9,1.4,2.5c1,0.6,2.7,0.7,2.8,0.7l0.7-0.1l-0.2-2.6l-0.8,0.1C39.5,36.9,38.9,36.9,38.6,36.6z"/>
			<path fill="#FFFFFF" d="M34.1,17.5c0-0.2,0.1-0.8,0.5-1.1c0.1-0.1,0.4-0.1,0.8-0.1c0.1,0,0.3,0,0.4,0c0.1,0,0.2,0,0.3,0
				c0.7,0,1.5-0.1,2.3-0.6c1.3-1,1.5-2.7,1.5-2.8L40,12l-2.5-0.2l-0.1,0.8c0,0.2-0.1,0.8-0.5,1.1c-0.1,0.1-0.7,0.3-1.2,0.3l0,0.1
				h-0.1c-0.3,0-2-0.1-2.8,0.7c-0.8,0.8-1.3,2.3-1.3,2.5l-0.1,0.7l2.6,0.4L34.1,17.5z"/>
			<path fill="#FFFFFF" d="M42.5,22.5l-0.3,0.7c-0.1,0.2-0.4,0.7-0.8,0.9c0,0-0.1,0-0.2,0c-0.3,0-0.7-0.1-1-0.2l-0.1,0
				c0,0-0.9-0.3-1.7-0.3c-0.5,0-0.9,0.1-1.2,0.3c-1,0.6-1.9,1.9-2,2.1L35,26.6l2.3,1.1l0.4-0.7l0,0c0.1-0.2,0.4-0.8,0.8-0.9
				c0,0,0,0,0.1,0c0.2,0,0.4,0.1,0.7,0.1c0.1,0,0.3,0.1,0.4,0.1c0.1,0,0.2,0.1,0.3,0.1c0.4,0.1,0.9,0.2,1.4,0.2c0.4,0,0.7-0.1,1-0.2
				c1.5-0.6,2.1-2.1,2.2-2.2l0.3-0.8L42.5,22.5z"/>
			<path fill="#FFFFFF" d="M23.8,7.7c0.2,0.2,0.6,0.5,0.7,1c0,0.2-0.1,0.5-0.3,0.8L23.9,10c-0.3,0.6-0.7,1.4-0.5,2.3l0,0
				c0.3,1.7,1.7,2.6,1.7,2.7l0.7,0.4l1.4-2.1L26.5,13c-0.2-0.1-0.6-0.5-0.7-1c0-0.1,0.1-0.7,0.5-1.1l0-0.1c0.2-0.3,1-1.7,0.7-2.8
				c-0.3-1.1-1.5-2.3-1.6-2.4l-0.6-0.4l-1.6,2L23.8,7.7L23.8,7.7z"/>
			<path fill="#FFFFFF" d="M25.9,35.2L24,36.9l0.6,0.6c0.1,0.2,0.5,0.6,0.4,1.1c0,0.1-0.3,0.6-0.7,1l-0.1,0.1
				c-0.3,0.3-1.3,1.5-1.3,2.6c0.1,1.2,0.9,2.6,1.1,2.7l0.5,0.5l2-1.6L26,43.2l0-0.1c-0.2-0.2-0.5-0.7-0.5-1.1c0-0.1,0.2-0.3,0.4-0.5
				c0.1-0.1,0.3-0.3,0.4-0.5c0.1-0.1,0.2-0.2,0.3-0.3c0.4-0.5,1-1.1,1.1-2c0.1-1.6-0.9-2.8-1.2-3L25.9,35.2z"/>
		</g>
	</g>
</g>
</svg>
